# xmcd CD database file
#
# Track frame offsets:
#	150
#	11230
#	16919
#	23733
#	32036
#	34103
#	36344
#	46056
#	53736
#	59784
#	70215
#	73393
#	77513
#	80179
#	86092
#	90786
#	91174
#	97843
#	101781
#	110437
#	122599
#	127625
#	135273
#	139503
#	147119
#	150898
#	156268
#	168007
#	173166
#	180121
#
# Disc length: 2514 seconds
#
# Revision: 0
# Processed by: cddbd v1.5PL3 Copyright (c) Steve Scherf et al.
# Submitted via: CdAid (MTCDDB.DLL V2003.12.21)
#
DISCID=6f09d01e
DTITLE=Shakin Jake Woods - On The Move
DYEAR=1978
DGENRE=Cult
TTITLE0=Baby Love
TTITLE1=Fat Bacon
TTITLE2=Movin On Down The Line
TTITLE3=Love Bird
TTITLE4=Feel Like Shouting
TTITLE5=Hunter Gets Captured
TTITLE6=Love Ballad From Paris
TTITLE7=Getting Ready For My Baby
TTITLE8=Swing Low, Sweet Chariot
TTITLE9=Scream Bloody Murder
TTITLE10=Teardrop In Your Eye
TTITLE11=Hippy Boy
TTITLE12=Night Train
TTITLE13=Baby, Please Send Me Someone
TTITLE14=Pink Spare Woman
TTITLE15=Goodnight
TTITLE16=Beautiful Girl
TTITLE17=Entertainer
TTITLE18=Songwriter
TTITLE19=State Street Boogie
TTITLE20=Sock It To You, Baby
TTITLE21=Fastest Guitar Man
TTITLE22=Fever Get On Your Mind
TTITLE23=The Devil Song
TTITLE24=My Baby Rides In The Sand
TTITLE25=Poem For The Young Girls
TTITLE26=Fire And Money
TTITLE27=Where This Record's Going
TTITLE28=Outrunning The Wind
TTITLE29=Closing Statement
EXTD=an Ann Arbor original ID3G:  58 YEAR: 1978
EXTT0=
EXTT1=
EXTT2=
EXTT3=
EXTT4=
EXTT5=
EXTT6=
EXTT7=
EXTT8=
EXTT9=
EXTT10=
EXTT11=
EXTT12=
EXTT13=
EXTT14=
EXTT15=
EXTT16=
EXTT17=
EXTT18=
EXTT19=
EXTT20=
EXTT21=
EXTT22=
EXTT23=
EXTT24=
EXTT25=
EXTT26=
EXTT27=
EXTT28=
EXTT29=
PLAYORDER=
